<svg xmlns="http://www.w3.org/2000/svg" width="375" viewBox="0 0 375 375" height="375" version="1.0"><defs><clipPath id="a"><path d="M 54 110 L 321 110 L 321 360.820312 L 54 360.820312 Z M 54 110"/></clipPath><clipPath id="b"><path d="M 189 14.320312 L 248 14.320312 L 248 72 L 189 72 Z M 189 14.320312"/></clipPath></defs><path fill="#5468FF" d="M 138.570312 264.523438 L 92.410156 322.285156 C 88.925781 326.65625 92.027344 333.105469 97.601562 333.105469 L 275.230469 333.105469 C 280.722656 333.105469 283.847656 326.832031 280.546875 322.441406 L 251.402344 283.789062 C 249.539062 281.324219 246.222656 280.46875 243.410156 281.710938 L 236.851562 284.625 C 221.773438 291.308594 204.425781 290.550781 189.988281 282.585938 L 152.335938 261.804688 C 147.695312 259.242188 141.882812 260.386719 138.570312 264.523438"/><g clip-path="url(#a)"><path fill="#5468FF" d="M 305.054688 340.835938 C 303.035156 344.777344 299.195312 347.109375 294.789062 347.109375 L 80.066406 347.109375 C 75.652344 347.109375 71.820312 344.777344 69.8125 340.835938 C 67.804688 336.890625 68.148438 332.40625 70.644531 328.949219 L 148.371094 226.589844 L 177.390625 226.589844 C 181.167969 226.589844 184.230469 223.523438 184.230469 219.753906 C 184.230469 215.96875 181.167969 212.898438 177.390625 212.898438 L 154.269531 212.898438 C 154.414062 211.792969 154.507812 210.664062 154.507812 209.558594 L 154.507812 202.46875 L 177.390625 202.46875 C 181.167969 202.46875 184.230469 199.398438 184.230469 195.632812 C 184.230469 191.84375 181.167969 188.777344 177.390625 188.777344 L 154.507812 188.777344 L 154.507812 178.351562 L 177.390625 178.351562 C 181.167969 178.351562 184.230469 175.289062 184.230469 171.507812 C 184.230469 167.722656 181.167969 164.660156 177.390625 164.660156 L 154.507812 164.660156 L 154.507812 146.15625 C 154.507812 142.371094 151.445312 139.308594 147.664062 139.308594 L 126.917969 139.308594 L 126.917969 124.675781 L 247.949219 124.675781 L 247.949219 139.308594 L 227.1875 139.308594 C 223.421875 139.308594 220.355469 142.371094 220.355469 146.15625 L 220.355469 209.558594 C 220.355469 215.328125 222.277344 221.035156 225.769531 225.640625 L 304.164062 328.890625 C 306.703125 332.464844 307.035156 336.910156 305.054688 340.835938 Z M 315.203125 320.792969 C 315.164062 320.753906 315.144531 320.714844 315.105469 320.675781 L 236.65625 217.367188 C 234.96875 215.132812 234.035156 212.355469 234.035156 209.558594 L 234.035156 153.003906 L 249.40625 153.003906 C 256.136719 153.003906 261.628906 147.515625 261.628906 140.773438 L 261.628906 123.210938 C 261.628906 116.46875 256.136719 110.980469 249.40625 110.980469 L 125.453125 110.980469 C 118.714844 110.980469 113.234375 116.46875 113.234375 123.210938 L 113.234375 140.773438 C 113.234375 147.515625 118.714844 153.003906 125.453125 153.003906 L 140.824219 153.003906 L 140.824219 209.558594 C 140.824219 212.355469 139.890625 215.132812 138.199219 217.367188 L 59.660156 320.792969 C 54.078125 328.5 53.296875 338.582031 57.625 347.050781 C 61.953125 355.539062 70.554688 360.820312 80.070312 360.820312 L 294.792969 360.820312 C 304.300781 360.820312 312.917969 355.539062 317.246094 347.050781 C 321.570312 338.582031 320.777344 328.5 315.207031 320.792969"/></g><path fill="#5468FF" d="M 158.535156 81.417969 C 158.535156 72.753906 165.550781 65.726562 174.210938 65.726562 C 182.867188 65.726562 189.890625 72.753906 189.890625 81.417969 C 189.890625 90.085938 182.867188 97.113281 174.210938 97.113281 C 165.550781 97.113281 158.535156 90.085938 158.535156 81.417969"/><g clip-path="url(#b)"><path fill="#5468FF" d="M 189.890625 43.027344 C 189.890625 27.175781 202.71875 14.328125 218.550781 14.328125 C 234.386719 14.328125 247.230469 27.175781 247.230469 43.027344 C 247.230469 58.875 234.386719 71.726562 218.550781 71.726562 C 202.71875 71.726562 189.890625 58.875 189.890625 43.027344"/></g></svg>